<?xml version="1.0" encoding="utf-8" ?>
<svg baseProfile="full" height="100%" version="1.1" viewBox="-322.0,-322.0,644,644" width="100%" xmlns="http://www.w3.org/2000/svg" xmlns:ev="http://www.w3.org/2001/xml-events" xmlns:xlink="http://www.w3.org/1999/xlink"><defs /><path d="M -108.5000000000001 -187.92751262122312 C 79.42751262122302 -296.42751262122323 166.0 -166.0 166.0 0.0" fill="none" stroke="#f781bf" stroke-width="0.5" /><path d="M -35.00000000000003 -60.62177826491069 C 25.62177826491066 -95.62177826491072 166.0 -166.0 166.0 0.0" fill="none" stroke="#f781bf" stroke-width="0.5" /><path d="M -129.5000000000001 -224.30057958016954 C 94.80057958016943 -353.80057958016965 166.0 -166.0 166.0 0.0" fill="none" stroke="#f781bf" stroke-width="0.5" /><path d="M -132.5000000000001 -229.49673200287617 C 96.99673200287606 -361.9967320028763 166.0 -166.0 166.0 0.0" fill="none" stroke="#f781bf" stroke-width="0.5" /><path d="M -147.50000000000014 -255.47749411640933 C 107.97749411640919 -402.9774941164095 166.0 -166.0 166.0 0.0" fill="none" stroke="#f781bf" stroke-width="0.5" /><path d="M -159.50000000000014 -276.26210380723586 C 116.76210380723572 -435.76210380723603 166.0 -166.0 166.0 0.0" fill="none" stroke="#f781bf" stroke-width="0.5" /><path d="M -117.5000000000001 -203.515969889343 C 86.01596988934291 -321.0159698893431 192.0 -192.0 192.0 0.0" fill="none" stroke="#f781bf" stroke-width="0.5" /><path d="M -123.50000000000011 -213.90827473475628 C 90.40827473475616 -337.4082747347564 192.0 -192.0 192.0 0.0" fill="none" stroke="#f781bf" stroke-width="0.5" /><path d="M -129.5000000000001 -224.30057958016954 C 94.80057958016943 -353.80057958016965 192.0 -192.0 192.0 0.0" fill="none" stroke="#f781bf" stroke-width="0.5" /><path d="M -71.00000000000006 -122.97560733739024 C 51.97560733739019 -193.9756073373903 192.0 -192.0 192.0 0.0" fill="none" stroke="#f781bf" stroke-width="0.5" /><path d="M -79.00000000000007 -136.83201379794127 C 57.8320137979412 -215.83201379794133 192.0 -192.0 192.0 0.0" fill="none" stroke="#f781bf" stroke-width="0.5" /><path d="M -95.00000000000009 -164.5448267190433 C 69.54482671904321 -259.5448267190434 192.0 -192.0 192.0 0.0" fill="none" stroke="#f781bf" stroke-width="0.5" /><path d="M -108.5000000000001 -187.92751262122312 C 79.42751262122302 -296.42751262122323 251.99999999999997 -252.0 252.0 0.0" fill="none" stroke="#f781bf" stroke-width="0.5" /><path d="M -13.00000000000001 -22.516660498395396 C 9.516660498395385 -35.51666049839541 251.99999999999997 -252.0 252.0 0.0" fill="none" stroke="#f781bf" stroke-width="0.5" /><path d="M -27.000000000000025 -46.765371804359674 C 19.76537180435965 -73.7653718043597 251.99999999999997 -252.0 252.0 0.0" fill="none" stroke="#f781bf" stroke-width="0.5" /><path d="M -29.000000000000025 -50.229473419497424 C 21.2294734194974 -79.22947341949745 251.99999999999997 -252.0 252.0 0.0" fill="none" stroke="#f781bf" stroke-width="0.5" /><path d="M -39.000000000000036 -67.54998149518619 C 28.549981495186152 -106.54998149518622 251.99999999999997 -252.0 252.0 0.0" fill="none" stroke="#f781bf" stroke-width="0.5" /><path d="M -93.00000000000009 -161.08072510390554 C 68.08072510390545 -254.08072510390562 251.99999999999997 -252.0 252.0 0.0" fill="none" stroke="#f781bf" stroke-width="0.5" /><path d="M -99.50000000000009 -172.33905535310325 C 72.83905535310316 -271.83905535310333 220.0 -220.0 220.0 0.0" fill="none" stroke="#f781bf" stroke-width="0.5" /><path d="M -19.000000000000018 -32.90896534380866 C 13.908965343808642 -51.908965343808674 220.0 -220.0 220.0 0.0" fill="none" stroke="#f781bf" stroke-width="0.5" /><path d="M -126.50000000000011 -219.1044271574629 C 92.6044271574628 -345.604427157463 220.0 -220.0 220.0 0.0" fill="none" stroke="#f781bf" stroke-width="0.5" /><path d="M -45.00000000000004 -77.94228634059945 C 32.94228634059941 -122.9422863405995 220.0 -220.0 220.0 0.0" fill="none" stroke="#f781bf" stroke-width="0.5" /><path d="M -150.50000000000014 -260.67364653911596 C 110.17364653911582 -411.17364653911613 220.0 -220.0 220.0 0.0" fill="none" stroke="#f781bf" stroke-width="0.5" /><path d="M -75.00000000000007 -129.90381056766574 C 54.90381056766567 -204.9038105676658 220.0 -220.0 220.0 0.0" fill="none" stroke="#f781bf" stroke-width="0.5" /><path d="M -159.50000000000014 -276.26210380723586 C 116.76210380723572 -435.76210380723603 220.0 -220.0 220.0 0.0" fill="none" stroke="#f781bf" stroke-width="0.5" /><path d="M -111.5000000000001 -193.12366504392975 C 81.62366504392965 -304.62366504392986 82.0 -82.0 82.0 0.0" fill="none" stroke="#f781bf" stroke-width="0.5" /><path d="M -17.000000000000014 -29.444863728670903 C 12.444863728670889 -46.44486372867092 82.0 -82.0 82.0 0.0" fill="none" stroke="#f781bf" stroke-width="0.5" /><path d="M -126.50000000000011 -219.1044271574629 C 92.6044271574628 -345.604427157463 82.0 -82.0 82.0 0.0" fill="none" stroke="#f781bf" stroke-width="0.5" /><path d="M -147.50000000000014 -255.47749411640933 C 107.97749411640919 -402.9774941164095 82.0 -82.0 82.0 0.0" fill="none" stroke="#f781bf" stroke-width="0.5" /><path d="M -99.50000000000009 -172.33905535310325 C 72.83905535310316 -271.83905535310333 45.0 -45.0 45.0 0.0" fill="none" stroke="#f781bf" stroke-width="0.5" /><path d="M -120.50000000000011 -208.71212231204964 C 88.21212231204953 -329.21212231204976 45.0 -45.0 45.0 0.0" fill="none" stroke="#f781bf" stroke-width="0.5" /><path d="M -21.000000000000018 -36.37306695894641 C 15.373066958946392 -57.373066958946424 45.0 -45.0 45.0 0.0" fill="none" stroke="#f781bf" stroke-width="0.5" /><path d="M -43.000000000000036 -74.4781847254617 C 31.478184725461666 -117.47818472546174 45.0 -45.0 45.0 0.0" fill="none" stroke="#f781bf" stroke-width="0.5" /><path d="M -85.00000000000007 -147.22431864335454 C 62.224318643354465 -232.2243186433546 45.0 -45.0 45.0 0.0" fill="none" stroke="#f781bf" stroke-width="0.5" /><path d="M -11.00000000000001 -19.052558883257646 C 8.052558883257635 -30.052558883257657 143.0 -143.0 143.0 0.0" fill="none" stroke="#f781bf" stroke-width="0.5" /><path d="M -117.5000000000001 -203.515969889343 C 86.01596988934291 -321.0159698893431 143.0 -143.0 143.0 0.0" fill="none" stroke="#f781bf" stroke-width="0.5" /><path d="M -27.000000000000025 -46.765371804359674 C 19.76537180435965 -73.7653718043597 143.0 -143.0 143.0 0.0" fill="none" stroke="#f781bf" stroke-width="0.5" /><path d="M -29.000000000000025 -50.229473419497424 C 21.2294734194974 -79.22947341949745 143.0 -143.0 143.0 0.0" fill="none" stroke="#f781bf" stroke-width="0.5" /><path d="M -41.000000000000036 -71.01408311032395 C 30.014083110323917 -112.01408311032398 143.0 -143.0 143.0 0.0" fill="none" stroke="#f781bf" stroke-width="0.5" /><path d="M -55.00000000000005 -95.26279441628822 C 40.262794416288166 -150.26279441628827 143.0 -143.0 143.0 0.0" fill="none" stroke="#f781bf" stroke-width="0.5" /><path d="M -105.5000000000001 -182.73136019851648 C 77.23136019851638 -288.2313601985166 102.0 -102.0 102.0 0.0" fill="none" stroke="#f781bf" stroke-width="0.5" /><path d="M -19.000000000000018 -32.90896534380866 C 13.908965343808642 -51.908965343808674 102.0 -102.0 102.0 0.0" fill="none" stroke="#f781bf" stroke-width="0.5" /><path d="M -37.000000000000036 -64.08587988004844 C 27.085879880048402 -101.08587988004848 102.0 -102.0 102.0 0.0" fill="none" stroke="#f781bf" stroke-width="0.5" /><path d="M -45.00000000000004 -77.94228634059945 C 32.94228634059941 -122.9422863405995 102.0 -102.0 102.0 0.0" fill="none" stroke="#f781bf" stroke-width="0.5" /><path d="M -77.00000000000007 -133.3679121828035 C 56.36791218280344 -210.3679121828036 102.0 -102.0 102.0 0.0" fill="none" stroke="#f781bf" stroke-width="0.5" /><path d="M -13.00000000000001 -22.516660498395396 C 9.516660498395385 -35.51666049839541 121.99999999999999 -122.0 122.0 0.0" fill="none" stroke="#f781bf" stroke-width="0.5" /><path d="M -114.5000000000001 -198.31981746663638 C 83.81981746663628 -312.8198174666365 121.99999999999999 -122.0 122.0 0.0" fill="none" stroke="#f781bf" stroke-width="0.5" /><path d="M -15.000000000000014 -25.980762113533153 C 10.980762113533139 -40.98076211353317 121.99999999999999 -122.0 122.0 0.0" fill="none" stroke="#f781bf" stroke-width="0.5" /><path d="M -25.00000000000002 -43.30127018922192 C 18.301270189221896 -68.30127018922194 121.99999999999999 -122.0 122.0 0.0" fill="none" stroke="#f781bf" stroke-width="0.5" /><path d="M -138.5000000000001 -239.88903684828944 C 101.38903684828932 -378.38903684828955 121.99999999999999 -122.0 122.0 0.0" fill="none" stroke="#f781bf" stroke-width="0.5" /><path d="M -102.50000000000009 -177.53520777580988 C 75.0352077758098 -280.03520777580997 62.99999999999999 -63.0 63.0 0.0" fill="none" stroke="#f781bf" stroke-width="0.5" /><path d="M -111.5000000000001 -193.12366504392975 C 81.62366504392965 -304.62366504392986 62.99999999999999 -63.0 63.0 0.0" fill="none" stroke="#f781bf" stroke-width="0.5" /><path d="M -120.50000000000011 -208.71212231204964 C 88.21212231204953 -329.21212231204976 62.99999999999999 -63.0 63.0 0.0" fill="none" stroke="#f781bf" stroke-width="0.5" /><path d="M -138.5000000000001 -239.88903684828944 C 101.38903684828932 -378.38903684828955 62.99999999999999 -63.0 63.0 0.0" fill="none" stroke="#f781bf" stroke-width="0.5" /><path d="M -141.5000000000001 -245.08518927099607 C 103.58518927099595 -386.5851892709962 62.99999999999999 -63.0 63.0 0.0" fill="none" stroke="#f781bf" stroke-width="0.5" /><path d="M -73.00000000000007 -126.43970895252801 C 53.43970895252794 -199.43970895252806 62.99999999999999 -63.0 63.0 0.0" fill="none" stroke="#f781bf" stroke-width="0.5" /><path d="M -21.000000000000018 -36.37306695894641 C 15.373066958946392 -57.373066958946424 28.0 -28.0 28.0 0.0" fill="none" stroke="#f781bf" stroke-width="0.5" /><path d="M -35.00000000000003 -60.62177826491069 C 25.62177826491066 -95.62177826491072 28.0 -28.0 28.0 0.0" fill="none" stroke="#f781bf" stroke-width="0.5" /><path d="M -135.5000000000001 -234.6928844255828 C 99.19288442558269 -370.1928844255829 28.0 -28.0 28.0 0.0" fill="none" stroke="#f781bf" stroke-width="0.5" /><path d="M -144.50000000000014 -250.2813416937027 C 105.78134169370256 -394.78134169370287 28.0 -28.0 28.0 0.0" fill="none" stroke="#f781bf" stroke-width="0.5" /><path d="M -61.00000000000006 -105.65509926170148 C 44.65509926170142 -166.65509926170154 28.0 -28.0 28.0 0.0" fill="none" stroke="#f781bf" stroke-width="0.5" /><path d="M -87.00000000000007 -150.68842025849227 C 63.6884202584922 -237.68842025849233 28.0 -28.0 28.0 0.0" fill="none" stroke="#f781bf" stroke-width="0.5" /><path d="M 166.0 0.0 C 166.0 166.0 20.497422611928585 76.49742261192857 -27.999999999999986 48.49742261192857" fill="none" stroke="#ff7f00" stroke-width="0.5" /><path d="M 166.0 0.0 C 166.0 166.0 38.06664199358165 142.0666419935816 -51.99999999999998 90.06664199358163" fill="none" stroke="#ff7f00" stroke-width="0.5" /><path d="M 192.0 0.0 C 192.0 192.0 67.34867429633677 251.3486742963367 -91.99999999999996 159.34867429633672" fill="none" stroke="#ff7f00" stroke-width="0.5" /><path d="M 192.0 0.0 C 192.0 192.0 71.74097914175003 267.74097914174996 -97.99999999999996 169.74097914175" fill="none" stroke="#ff7f00" stroke-width="0.5" /><path d="M 192.0 0.0 C 192.0 192.0 44.28907385791712 165.2890738579171 -60.49999999999997 104.78907385791709" fill="none" stroke="#ff7f00" stroke-width="0.5" /><path d="M 192.0 0.0 C 192.0 192.0 38.06664199358165 142.0666419935816 -51.99999999999998 90.06664199358163" fill="none" stroke="#ff7f00" stroke-width="0.5" /><path d="M 192.0 0.0 C 192.0 192.0 40.99484522385717 152.99484522385714 -55.99999999999997 96.99484522385714" fill="none" stroke="#ff7f00" stroke-width="0.5" /><path d="M 252.0 0.0 C 252.00000000000003 252.0 62.9563694509235 234.95636945092343 -85.99999999999996 148.95636945092346" fill="none" stroke="#ff7f00" stroke-width="0.5" /><path d="M 252.0 0.0 C 252.00000000000003 252.0 76.1332839871633 284.1332839871632 -103.99999999999996 180.13328398716325" fill="none" stroke="#ff7f00" stroke-width="0.5" /><path d="M 252.0 0.0 C 252.00000000000003 252.0 47.9493278957615 178.94932789576146 -65.49999999999997 113.44932789576147" fill="none" stroke="#ff7f00" stroke-width="0.5" /><path d="M 252.0 0.0 C 252.00000000000003 252.0 84.91789367798984 316.91789367798975 -115.99999999999994 200.91789367798978" fill="none" stroke="#ff7f00" stroke-width="0.5" /><path d="M 252.0 0.0 C 252.00000000000003 252.0 11.712812921102046 43.712812921102035 -15.999999999999993 27.71281292110204" fill="none" stroke="#ff7f00" stroke-width="0.5" /><path d="M 220.0 0.0 C 220.0 220.0 62.9563694509235 234.95636945092343 -85.99999999999996 148.95636945092346" fill="none" stroke="#ff7f00" stroke-width="0.5" /><path d="M 220.0 0.0 C 220.0 220.0 47.9493278957615 178.94932789576146 -65.49999999999997 113.44932789576147" fill="none" stroke="#ff7f00" stroke-width="0.5" /><path d="M 220.0 0.0 C 220.0 220.0 80.52558883257656 300.5255888325765 -109.99999999999996 190.52558883257652" fill="none" stroke="#ff7f00" stroke-width="0.5" /><path d="M 220.0 0.0 C 220.0 220.0 51.60958193360588 192.60958193360585 -70.49999999999997 122.10958193360585" fill="none" stroke="#ff7f00" stroke-width="0.5" /><path d="M 82.0 0.0 C 82.0 82.0 62.956369450923475 234.9563694509235 -85.99999999999996 148.95636945092346" fill="none" stroke="#ff7f00" stroke-width="0.5" /><path d="M 82.0 0.0 C 82.0 82.0 89.67622392718755 334.6762239271875 -122.49999999999994 212.1762239271875" fill="none" stroke="#ff7f00" stroke-width="0.5" /><path d="M 82.0 0.0 C 82.0 82.0 80.52558883257656 300.5255888325765 -109.99999999999996 190.52558883257652" fill="none" stroke="#ff7f00" stroke-width="0.5" /><path d="M 82.0 0.0 C 82.0 82.0 35.138438763306134 131.1384387633061 -47.99999999999998 83.13843876330611" fill="none" stroke="#ff7f00" stroke-width="0.5" /><path d="M 143.0 0.0 C 143.0 143.0 67.34867429633674 251.34867429633675 -91.99999999999996 159.34867429633672" fill="none" stroke="#ff7f00" stroke-width="0.5" /><path d="M 45.0 0.0 C 45.0 45.0 11.712812921102046 43.712812921102035 -15.999999999999993 27.71281292110204" fill="none" stroke="#ff7f00" stroke-width="0.5" /><path d="M 45.0 0.0 C 45.0 45.0 32.210235533030634 120.21023553303061 -43.99999999999998 76.21023553303061" fill="none" stroke="#ff7f00" stroke-width="0.5" /><path d="M 143.0 0.0 C 143.0 143.0 44.28907385791712 165.2890738579171 -60.49999999999997 104.78907385791709" fill="none" stroke="#ff7f00" stroke-width="0.5" /><path d="M 143.0 0.0 C 143.0 143.0 8.784609690826533 32.78460969082653 -11.999999999999995 20.784609690826528" fill="none" stroke="#ff7f00" stroke-width="0.5" /><path d="M 102.0 0.0 C 102.0 102.0 55.26983597145028 206.26983597145022 -75.49999999999997 130.76983597145025" fill="none" stroke="#ff7f00" stroke-width="0.5" /><path d="M 102.0 0.0 C 102.0 102.0 14.641016151377556 54.64101615137754 -19.999999999999993 34.64101615137755" fill="none" stroke="#ff7f00" stroke-width="0.5" /><path d="M 122.0 0.0 C 122.00000000000001 122.0 84.91789367798984 316.91789367798975 -115.99999999999994 200.91789367798978" fill="none" stroke="#ff7f00" stroke-width="0.5" /><path d="M 122.0 0.0 C 122.00000000000001 122.0 17.569219381653067 65.56921938165306 -23.99999999999999 41.569219381653056" fill="none" stroke="#ff7f00" stroke-width="0.5" /><path d="M 122.0 0.0 C 122.00000000000001 122.0 29.282032302755113 109.28203230275508 -39.999999999999986 69.2820323027551" fill="none" stroke="#ff7f00" stroke-width="0.5" /><path d="M 63.0 0.0 C 63.00000000000001 63.0 17.569219381653067 65.56921938165306 -23.99999999999999 41.569219381653056" fill="none" stroke="#ff7f00" stroke-width="0.5" /><path d="M -91.99999999999996 159.34867429633672 C -251.34867429633664 67.34867429633671 -312.81981746663655 -83.8198174666364 -114.5000000000001 -198.31981746663638" fill="none" stroke="#ff7f00" stroke-width="0.5" /><path d="M -91.99999999999996 159.34867429633672 C -251.34867429633664 67.34867429633671 -427.5659513845295 -114.56595138452926 -156.50000000000014 -271.0659513845292" fill="none" stroke="#ff7f00" stroke-width="0.5" /><path d="M -91.99999999999996 159.34867429633672 C -251.34867429633664 67.34867429633671 -215.83201379794139 -57.832013797941286 -79.00000000000007 -136.83201379794127" fill="none" stroke="#ff7f00" stroke-width="0.5" /><path d="M -97.99999999999996 169.74097914175 C -267.7409791417499 71.74097914174996 -68.30127018922195 -18.30127018922192 -25.00000000000002 -43.30127018922192" fill="none" stroke="#ff7f00" stroke-width="0.5" /><path d="M -97.99999999999996 169.74097914175 C -267.7409791417499 71.74097914174996 -183.04740410711486 -49.04740410711476 -67.00000000000006 -116.04740410711474" fill="none" stroke="#ff7f00" stroke-width="0.5" /><path d="M -60.49999999999997 104.78907385791709 C -165.28907385791706 44.289073857917074 -144.79869280115057 -38.79869280115047 -53.00000000000005 -91.79869280115047" fill="none" stroke="#ff7f00" stroke-width="0.5" /><path d="M -60.49999999999997 104.78907385791709 C -165.28907385791706 44.289073857917074 -210.36791218280365 -56.36791218280352 -77.00000000000007 -133.3679121828035" fill="none" stroke="#ff7f00" stroke-width="0.5" /><path d="M -103.99999999999996 180.13328398716325 C -284.13328398716317 76.13328398716322 -271.83905535310333 -72.83905535310316 -99.50000000000009 -172.33905535310325" fill="none" stroke="#ff7f00" stroke-width="0.5" /><path d="M -122.49999999999994 212.1762239271875 C -334.6762239271874 89.67622392718746 -40.980762113533174 -10.980762113533155 -15.000000000000014 -25.980762113533153" fill="none" stroke="#ff7f00" stroke-width="0.5" /><path d="M -122.49999999999994 212.1762239271875 C -334.6762239271874 89.67622392718746 -370.192884425583 -99.19288442558283 -135.5000000000001 -234.6928844255828" fill="none" stroke="#ff7f00" stroke-width="0.5" /><path d="M -122.49999999999994 212.1762239271875 C -334.6762239271874 89.67622392718746 -133.87048957087504 -35.87048957087497 -49.00000000000004 -84.87048957087497" fill="none" stroke="#ff7f00" stroke-width="0.5" /><path d="M -122.49999999999994 212.1762239271875 C -334.6762239271874 89.67622392718746 -172.11920087683933 -46.11920087683924 -63.00000000000006 -109.11920087683923" fill="none" stroke="#ff7f00" stroke-width="0.5" /><path d="M -103.99999999999996 180.13328398716325 C -284.13328398716317 76.13328398716322 -106.54998149518624 -28.549981495186195 -39.000000000000036 -67.54998149518619" fill="none" stroke="#ff7f00" stroke-width="0.5" /><path d="M -103.99999999999996 180.13328398716325 C -284.13328398716317 76.13328398716322 -139.3345911860128 -37.33459118601272 -51.00000000000004 -88.33459118601272" fill="none" stroke="#ff7f00" stroke-width="0.5" /><path d="M -103.99999999999996 180.13328398716325 C -284.13328398716317 76.13328398716322 -204.90381056766586 -54.90381056766576 -75.00000000000007 -129.90381056766574" fill="none" stroke="#ff7f00" stroke-width="0.5" /><path d="M -65.49999999999997 113.44932789576147 C -178.94932789576143 47.949327895761456 -280.03520777581 -75.0352077758099 -102.50000000000009 -177.53520777580988" fill="none" stroke="#ff7f00" stroke-width="0.5" /><path d="M -65.49999999999997 113.44932789576147 C -178.94932789576143 47.949327895761456 -161.19099764656383 -43.19099764656374 -59.00000000000005 -102.19099764656373" fill="none" stroke="#ff7f00" stroke-width="0.5" /><path d="M -109.99999999999996 190.52558883257652 C -300.52558883257643 80.52558883257649 -288.23136019851665 -77.2313601985165 -105.5000000000001 -182.73136019851648" fill="none" stroke="#ff7f00" stroke-width="0.5" /><path d="M -109.99999999999996 190.52558883257652 C -300.52558883257643 80.52558883257649 -30.052558883257664 -8.052558883257648 -11.00000000000001 -19.052558883257646" fill="none" stroke="#ff7f00" stroke-width="0.5" /><path d="M -109.99999999999996 190.52558883257652 C -300.52558883257643 80.52558883257649 -243.15252187363018 -65.15252187363005 -89.00000000000009 -154.15252187363004" fill="none" stroke="#ff7f00" stroke-width="0.5" /><path d="M -115.99999999999994 200.91789367798978 C -316.9178936779897 84.91789367798975 -133.87048957087504 -35.87048957087497 -49.00000000000004 -84.87048957087497" fill="none" stroke="#ff7f00" stroke-width="0.5" /><path d="M -115.99999999999994 200.91789367798978 C -316.9178936779897 84.91789367798975 -177.5833024919771 -47.58330249197701 -65.00000000000006 -112.583302491977" fill="none" stroke="#ff7f00" stroke-width="0.5" /><path d="M -70.49999999999997 122.10958193360585 C -192.6095819336058 51.60958193360584 -128.40638795573727 -34.40638795573721 -47.00000000000004 -81.4063879557372" fill="none" stroke="#ff7f00" stroke-width="0.5" /><path d="M -70.49999999999997 122.10958193360585 C -192.6095819336058 51.60958193360584 -155.72689603142607 -41.72689603142599 -57.00000000000005 -98.72689603142598" fill="none" stroke="#ff7f00" stroke-width="0.5" /><path d="M -70.49999999999997 122.10958193360585 C -192.6095819336058 51.60958193360584 -177.5833024919771 -47.58330249197701 -65.00000000000006 -112.583302491977" fill="none" stroke="#ff7f00" stroke-width="0.5" /><path d="M -11.999999999999995 20.784609690826528 C -32.78460969082652 8.784609690826525 -46.44486372867093 -12.444863728670907 -17.000000000000014 -29.444863728670903" fill="none" stroke="#ff7f00" stroke-width="0.5" /><path d="M -11.999999999999995 20.784609690826528 C -32.78460969082652 8.784609690826525 -265.0089283341812 -71.00892833418105 -97.00000000000009 -168.00892833418104" fill="none" stroke="#ff7f00" stroke-width="0.5" /><path d="M -75.49999999999997 130.76983597145025 C -206.2698359714502 55.269835971450235 -254.08072510390568 -68.08072510390555 -93.00000000000009 -161.08072510390554" fill="none" stroke="#ff7f00" stroke-width="0.5" /><path d="M -75.49999999999997 130.76983597145025 C -206.2698359714502 55.269835971450235 -259.54482671904344 -69.54482671904331 -95.00000000000009 -164.5448267190433" fill="none" stroke="#ff7f00" stroke-width="0.5" /><path d="M -15.999999999999993 27.71281292110204 C -43.71281292110203 11.712812921102035 -361.99673200287634 -96.9967320028762 -132.5000000000001 -229.49673200287617" fill="none" stroke="#ff7f00" stroke-width="0.5" /><path d="M -15.999999999999993 27.71281292110204 C -43.71281292110203 11.712812921102035 -172.11920087683933 -46.11920087683924 -63.00000000000006 -109.11920087683923" fill="none" stroke="#ff7f00" stroke-width="0.5" /><path d="M -19.999999999999993 34.64101615137755 C -54.641016151377535 14.641016151377546 -62.8371685740842 -16.83716857408417 -23.00000000000002 -39.83716857408417" fill="none" stroke="#ff7f00" stroke-width="0.5" /><path d="M -23.99999999999999 41.569219381653056 C -65.56921938165304 17.56921938165305 -155.72689603142607 -41.72689603142599 -57.00000000000005 -98.72689603142598" fill="none" stroke="#ff7f00" stroke-width="0.5" /><path d="M -80.49999999999996 139.43009000929464 C -219.9300900092946 58.93009000929463 -419.3697989618229 -112.36979896182262 -153.50000000000014 -265.8697989618226" fill="none" stroke="#ff7f00" stroke-width="0.5" /><path d="M -80.49999999999996 139.43009000929464 C -219.9300900092946 58.93009000929463 -232.22431864335465 -62.22431864335455 -85.00000000000007 -147.22431864335454" fill="none" stroke="#ff7f00" stroke-width="0.5" /><path d="M -27.999999999999986 48.49742261192857 C -76.49742261192856 20.497422611928563 -84.69357503463523 -22.693575034635185 -31.00000000000003 -53.69357503463518" fill="none" stroke="#ff7f00" stroke-width="0.5" /><path d="M -27.999999999999986 48.49742261192857 C -76.49742261192856 20.497422611928563 -386.58518927099624 -103.5851892709961 -141.5000000000001 -245.08518927099607" fill="none" stroke="#ff7f00" stroke-width="0.5" /><path d="M -31.999999999999986 55.42562584220408 C -87.42562584220406 23.42562584220407 -394.7813416937029 -105.78134169370273 -144.50000000000014 -250.2813416937027" fill="none" stroke="#ff7f00" stroke-width="0.5" /><path d="M -31.999999999999986 55.42562584220408 C -87.42562584220406 23.42562584220407 -166.6550992617016 -44.65509926170149 -61.00000000000006 -105.65509926170148" fill="none" stroke="#ff7f00" stroke-width="0.5" /><path d="M -35.999999999999986 62.353829072479584 C -98.35382907247956 26.353829072479577 -117.47818472546177 -31.47818472546171 -43.000000000000036 -74.4781847254617" fill="none" stroke="#ff7f00" stroke-width="0.5" /><path d="M -39.999999999999986 69.2820323027551 C -109.28203230275507 29.28203230275509 -62.8371685740842 -16.83716857408417 -23.00000000000002 -39.83716857408417" fill="none" stroke="#ff7f00" stroke-width="0.5" /><path d="M -39.999999999999986 69.2820323027551 C -109.28203230275507 29.28203230275509 -90.15767664977298 -24.157676649772938 -33.00000000000003 -57.15767664977293" fill="none" stroke="#ff7f00" stroke-width="0.5" /><path d="M -43.99999999999998 76.21023553303061 C -120.21023553303058 32.210235533030605 -337.4082747347564 -90.40827473475616 -123.50000000000011 -213.90827473475628" fill="none" stroke="#ff7f00" stroke-width="0.5" /><path d="M -43.99999999999998 76.21023553303061 C -120.21023553303058 32.210235533030605 -128.40638795573727 -34.40638795573721 -47.00000000000004 -81.4063879557372" fill="none" stroke="#ff7f00" stroke-width="0.5" /><path d="M -43.99999999999998 76.21023553303061 C -120.21023553303058 32.210235533030605 -221.29611541307912 -59.29611541307902 -81.00000000000007 -140.296115413079" fill="none" stroke="#ff7f00" stroke-width="0.5" /><path d="M -47.99999999999998 83.13843876330611 C -131.13843876330608 35.1384387633061 -411.17364653911625 -110.17364653911599 -150.50000000000014 -260.67364653911596" fill="none" stroke="#ff7f00" stroke-width="0.5" /><path d="M -47.99999999999998 83.13843876330611 C -131.13843876330608 35.1384387633061 -193.97560733739036 -51.97560733739026 -71.00000000000006 -122.97560733739024" fill="none" stroke="#ff7f00" stroke-width="0.5" /><path d="M -51.99999999999998 90.06664199358163 C -142.06664199358158 38.06664199358161 -112.01408311032401 -30.01408311032396 -41.000000000000036 -71.01408311032395" fill="none" stroke="#ff7f00" stroke-width="0.5" /><path d="M -51.99999999999998 90.06664199358163 C -142.06664199358158 38.06664199358161 -183.04740410711486 -49.04740410711476 -67.00000000000006 -116.04740410711474" fill="none" stroke="#ff7f00" stroke-width="0.5" /><path d="M -55.99999999999997 96.99484522385714 C -152.9948452238571 40.994845223857126 -199.43970895252812 -53.43970895252802 -73.00000000000007 -126.43970895252801" fill="none" stroke="#ff7f00" stroke-width="0.5" /><path d="M -55.99999999999997 96.99484522385714 C -152.9948452238571 40.994845223857126 -265.0089283341812 -71.00892833418105 -97.00000000000009 -168.00892833418104" fill="none" stroke="#ff7f00" stroke-width="0.5" /><g><line stroke="#4daf4a" stroke-width="1.1" x1="20.0" x2="270.0" y1="0.0" y2="0.0" /><g><circle cx="28.0" cy="0.0" fill="#984ea3" fill-opacity="0.7" r="8" stroke="#984ea3" stroke-width="0.1" /><text text-anchor="middle" transform="translate(28.0, 0.0) scale(0.6) rotate(-90)">node 40 k=8</text></g><g><circle cx="45.0" cy="0.0" fill="#984ea3" fill-opacity="0.7" r="9" stroke="#984ea3" stroke-width="0.1" /><text text-anchor="middle" transform="translate(45.0, 0.0) scale(0.6) rotate(-90)">node 8 k=9</text></g><g><circle cx="63.0" cy="0.0" fill="#984ea3" fill-opacity="0.7" r="9" stroke="#984ea3" stroke-width="0.1" /><text text-anchor="middle" transform="translate(63.0, 0.0) scale(0.6) rotate(-90)">node 20 k=9</text></g><g><circle cx="82.0" cy="0.0" fill="#984ea3" fill-opacity="0.7" r="10" stroke="#984ea3" stroke-width="0.1" /><text text-anchor="middle" transform="translate(82.0, 0.0) scale(0.6) rotate(-90)">node 5 k=10</text></g><g><circle cx="102.0" cy="0.0" fill="#984ea3" fill-opacity="0.7" r="10" stroke="#984ea3" stroke-width="0.1" /><text text-anchor="middle" transform="translate(102.0, 0.0) scale(0.6) rotate(-90)">node 10 k=10</text></g><g><circle cx="122.0" cy="0.0" fill="#984ea3" fill-opacity="0.7" r="10" stroke="#984ea3" stroke-width="0.1" /><text text-anchor="middle" transform="translate(122.0, 0.0) scale(0.6) rotate(-90)">node 12 k=10</text></g><g><circle cx="143.0" cy="0.0" fill="#984ea3" fill-opacity="0.7" r="11" stroke="#984ea3" stroke-width="0.1" /><text text-anchor="middle" transform="translate(143.0, 0.0) scale(0.6) rotate(-90)">node 9 k=11</text></g><g><circle cx="166.0" cy="0.0" fill="#984ea3" fill-opacity="0.7" r="12" stroke="#984ea3" stroke-width="0.1" /><text text-anchor="middle" transform="translate(166.0, 0.0) scale(0.6) rotate(-90)">node 0 k=12</text></g><g><circle cx="192.0" cy="0.0" fill="#984ea3" fill-opacity="0.7" r="14" stroke="#984ea3" stroke-width="0.1" /><text text-anchor="middle" transform="translate(192.0, 0.0) scale(0.6) rotate(-90)">node 1 k=14</text></g><g><circle cx="220.0" cy="0.0" fill="#984ea3" fill-opacity="0.7" r="14" stroke="#984ea3" stroke-width="0.1" /><text text-anchor="middle" transform="translate(220.0, 0.0) scale(0.6) rotate(-90)">node 3 k=14</text></g><g><circle cx="252.0" cy="0.0" fill="#984ea3" fill-opacity="0.7" r="18" stroke="#984ea3" stroke-width="0.1" /><text text-anchor="middle" transform="translate(252.0, 0.0) scale(0.6) rotate(-90)">node 2 k=18</text></g></g><g><line stroke="#ff7f00" stroke-width="1.1" x1="-9.999999999999996" x2="-125.99999999999994" y1="17.320508075688775" y2="218.23840175367854" /><g><circle cx="-11.999999999999995" cy="20.784609690826528" fill="#4daf4a" fill-opacity="0.7" r="4" stroke="#4daf4a" stroke-width="0.1" /><text text-anchor="middle" transform="translate(-11.999999999999995, 20.784609690826528) scale(0.6) rotate(30)">node 21 k=4</text></g><g><circle cx="-15.999999999999993" cy="27.71281292110204" fill="#4daf4a" fill-opacity="0.7" r="4" stroke="#4daf4a" stroke-width="0.1" /><text text-anchor="middle" transform="translate(-15.999999999999993, 27.71281292110204) scale(0.6) rotate(30)">node 25 k=4</text></g><g><circle cx="-19.999999999999993" cy="34.64101615137755" fill="#4daf4a" fill-opacity="0.7" r="4" stroke="#4daf4a" stroke-width="0.1" /><text text-anchor="middle" transform="translate(-19.999999999999993, 34.64101615137755) scale(0.6) rotate(30)">node 28 k=4</text></g><g><circle cx="-23.99999999999999" cy="41.569219381653056" fill="#4daf4a" fill-opacity="0.7" r="4" stroke="#4daf4a" stroke-width="0.1" /><text text-anchor="middle" transform="translate(-23.99999999999999, 41.569219381653056) scale(0.6) rotate(30)">node 29 k=4</text></g><g><circle cx="-27.999999999999986" cy="48.49742261192857" fill="#4daf4a" fill-opacity="0.7" r="4" stroke="#4daf4a" stroke-width="0.1" /><text text-anchor="middle" transform="translate(-27.999999999999986, 48.49742261192857) scale(0.6) rotate(30)">node 33 k=4</text></g><g><circle cx="-31.999999999999986" cy="55.42562584220408" fill="#4daf4a" fill-opacity="0.7" r="4" stroke="#4daf4a" stroke-width="0.1" /><text text-anchor="middle" transform="translate(-31.999999999999986, 55.42562584220408) scale(0.6) rotate(30)">node 35 k=4</text></g><g><circle cx="-35.999999999999986" cy="62.353829072479584" fill="#4daf4a" fill-opacity="0.7" r="4" stroke="#4daf4a" stroke-width="0.1" /><text text-anchor="middle" transform="translate(-35.999999999999986, 62.353829072479584) scale(0.6) rotate(30)">node 38 k=4</text></g><g><circle cx="-39.999999999999986" cy="69.2820323027551" fill="#4daf4a" fill-opacity="0.7" r="4" stroke="#4daf4a" stroke-width="0.1" /><text text-anchor="middle" transform="translate(-39.999999999999986, 69.2820323027551) scale(0.6) rotate(30)">node 41 k=4</text></g><g><circle cx="-43.99999999999998" cy="76.21023553303061" fill="#4daf4a" fill-opacity="0.7" r="4" stroke="#4daf4a" stroke-width="0.1" /><text text-anchor="middle" transform="translate(-43.99999999999998, 76.21023553303061) scale(0.6) rotate(30)">node 53 k=4</text></g><g><circle cx="-47.99999999999998" cy="83.13843876330611" fill="#4daf4a" fill-opacity="0.7" r="4" stroke="#4daf4a" stroke-width="0.1" /><text text-anchor="middle" transform="translate(-47.99999999999998, 83.13843876330611) scale(0.6) rotate(30)">node 56 k=4</text></g><g><circle cx="-51.99999999999998" cy="90.06664199358163" fill="#4daf4a" fill-opacity="0.7" r="4" stroke="#4daf4a" stroke-width="0.1" /><text text-anchor="middle" transform="translate(-51.99999999999998, 90.06664199358163) scale(0.6) rotate(30)">node 62 k=4</text></g><g><circle cx="-55.99999999999997" cy="96.99484522385714" fill="#4daf4a" fill-opacity="0.7" r="4" stroke="#4daf4a" stroke-width="0.1" /><text text-anchor="middle" transform="translate(-55.99999999999997, 96.99484522385714) scale(0.6) rotate(30)">node 82 k=4</text></g><g><circle cx="-60.49999999999997" cy="104.78907385791709" fill="#4daf4a" fill-opacity="0.7" r="5" stroke="#4daf4a" stroke-width="0.1" /><text text-anchor="middle" transform="translate(-60.49999999999997, 104.78907385791709) scale(0.6) rotate(30)">node 11 k=5</text></g><g><circle cx="-65.49999999999997" cy="113.44932789576147" fill="#4daf4a" fill-opacity="0.7" r="5" stroke="#4daf4a" stroke-width="0.1" /><text text-anchor="middle" transform="translate(-65.49999999999997, 113.44932789576147) scale(0.6) rotate(30)">node 16 k=5</text></g><g><circle cx="-70.49999999999997" cy="122.10958193360585" fill="#4daf4a" fill-opacity="0.7" r="5" stroke="#4daf4a" stroke-width="0.1" /><text text-anchor="middle" transform="translate(-70.49999999999997, 122.10958193360585) scale(0.6) rotate(30)">node 19 k=5</text></g><g><circle cx="-75.49999999999997" cy="130.76983597145025" fill="#4daf4a" fill-opacity="0.7" r="5" stroke="#4daf4a" stroke-width="0.1" /><text text-anchor="middle" transform="translate(-75.49999999999997, 130.76983597145025) scale(0.6) rotate(30)">node 22 k=5</text></g><g><circle cx="-80.49999999999996" cy="139.43009000929464" fill="#4daf4a" fill-opacity="0.7" r="5" stroke="#4daf4a" stroke-width="0.1" /><text text-anchor="middle" transform="translate(-80.49999999999996, 139.43009000929464) scale(0.6) rotate(30)">node 32 k=5</text></g><g><circle cx="-85.99999999999996" cy="148.95636945092346" fill="#4daf4a" fill-opacity="0.7" r="6" stroke="#4daf4a" stroke-width="0.1" /><text text-anchor="middle" transform="translate(-85.99999999999996, 148.95636945092346) scale(0.6) rotate(30)">node 4 k=6</text></g><g><circle cx="-91.99999999999996" cy="159.34867429633672" fill="#4daf4a" fill-opacity="0.7" r="6" stroke="#4daf4a" stroke-width="0.1" /><text text-anchor="middle" transform="translate(-91.99999999999996, 159.34867429633672) scale(0.6) rotate(30)">node 6 k=6</text></g><g><circle cx="-97.99999999999996" cy="169.74097914175" fill="#4daf4a" fill-opacity="0.7" r="6" stroke="#4daf4a" stroke-width="0.1" /><text text-anchor="middle" transform="translate(-97.99999999999996, 169.74097914175) scale(0.6) rotate(30)">node 7 k=6</text></g><g><circle cx="-103.99999999999996" cy="180.13328398716325" fill="#4daf4a" fill-opacity="0.7" r="6" stroke="#4daf4a" stroke-width="0.1" /><text text-anchor="middle" transform="translate(-103.99999999999996, 180.13328398716325) scale(0.6) rotate(30)">node 15 k=6</text></g><g><circle cx="-109.99999999999996" cy="190.52558883257652" fill="#4daf4a" fill-opacity="0.7" r="6" stroke="#4daf4a" stroke-width="0.1" /><text text-anchor="middle" transform="translate(-109.99999999999996, 190.52558883257652) scale(0.6) rotate(30)">node 17 k=6</text></g><g><circle cx="-115.99999999999994" cy="200.91789367798978" fill="#4daf4a" fill-opacity="0.7" r="6" stroke="#4daf4a" stroke-width="0.1" /><text text-anchor="middle" transform="translate(-115.99999999999994, 200.91789367798978) scale(0.6) rotate(30)">node 18 k=6</text></g><g><circle cx="-122.49999999999994" cy="212.1762239271875" fill="#4daf4a" fill-opacity="0.7" r="7" stroke="#4daf4a" stroke-width="0.1" /><text text-anchor="middle" transform="translate(-122.49999999999994, 212.1762239271875) scale(0.6) rotate(30)">node 14 k=7</text></g></g><g><line stroke="#a65628" stroke-width="1.1" x1="-10.000000000000009" x2="-161.00000000000014" y1="-17.320508075688767" y2="-278.8601800185892" /><g><circle cx="-11.00000000000001" cy="-19.052558883257646" fill="#984ea3" fill-opacity="0.7" r="2" stroke="#984ea3" stroke-width="0.1" /><text text-anchor="middle" transform="translate(-11.00000000000001, -19.052558883257646) scale(0.35) rotate(330)">node 30 k=2</text></g><g><circle cx="-13.00000000000001" cy="-22.516660498395396" fill="#984ea3" fill-opacity="0.7" r="2" stroke="#984ea3" stroke-width="0.1" /><text text-anchor="middle" transform="translate(-13.00000000000001, -22.516660498395396) scale(0.35) rotate(330)">node 31 k=2</text></g><g><circle cx="-15.000000000000014" cy="-25.980762113533153" fill="#984ea3" fill-opacity="0.7" r="2" stroke="#984ea3" stroke-width="0.1" /><text text-anchor="middle" transform="translate(-15.000000000000014, -25.980762113533153) scale(0.35) rotate(330)">node 39 k=2</text></g><g><circle cx="-17.000000000000014" cy="-29.444863728670903" fill="#984ea3" fill-opacity="0.7" r="2" stroke="#984ea3" stroke-width="0.1" /><text text-anchor="middle" transform="translate(-17.000000000000014, -29.444863728670903) scale(0.35) rotate(330)">node 42 k=2</text></g><g><circle cx="-19.000000000000018" cy="-32.90896534380866" fill="#984ea3" fill-opacity="0.7" r="2" stroke="#984ea3" stroke-width="0.1" /><text text-anchor="middle" transform="translate(-19.000000000000018, -32.90896534380866) scale(0.35) rotate(330)">node 43 k=2</text></g><g><circle cx="-21.000000000000018" cy="-36.37306695894641" fill="#984ea3" fill-opacity="0.7" r="2" stroke="#984ea3" stroke-width="0.1" /><text text-anchor="middle" transform="translate(-21.000000000000018, -36.37306695894641) scale(0.35) rotate(330)">node 44 k=2</text></g><g><circle cx="-23.00000000000002" cy="-39.83716857408417" fill="#984ea3" fill-opacity="0.7" r="2" stroke="#984ea3" stroke-width="0.1" /><text text-anchor="middle" transform="translate(-23.00000000000002, -39.83716857408417) scale(0.35) rotate(330)">node 45 k=2</text></g><g><circle cx="-25.00000000000002" cy="-43.30127018922192" fill="#984ea3" fill-opacity="0.7" r="2" stroke="#984ea3" stroke-width="0.1" /><text text-anchor="middle" transform="translate(-25.00000000000002, -43.30127018922192) scale(0.35) rotate(330)">node 46 k=2</text></g><g><circle cx="-27.000000000000025" cy="-46.765371804359674" fill="#984ea3" fill-opacity="0.7" r="2" stroke="#984ea3" stroke-width="0.1" /><text text-anchor="middle" transform="translate(-27.000000000000025, -46.765371804359674) scale(0.35) rotate(330)">node 48 k=2</text></g><g><circle cx="-29.000000000000025" cy="-50.229473419497424" fill="#984ea3" fill-opacity="0.7" r="2" stroke="#984ea3" stroke-width="0.1" /><text text-anchor="middle" transform="translate(-29.000000000000025, -50.229473419497424) scale(0.35) rotate(330)">node 50 k=2</text></g><g><circle cx="-31.00000000000003" cy="-53.69357503463518" fill="#984ea3" fill-opacity="0.7" r="2" stroke="#984ea3" stroke-width="0.1" /><text text-anchor="middle" transform="translate(-31.00000000000003, -53.69357503463518) scale(0.35) rotate(330)">node 51 k=2</text></g><g><circle cx="-33.00000000000003" cy="-57.15767664977293" fill="#984ea3" fill-opacity="0.7" r="2" stroke="#984ea3" stroke-width="0.1" /><text text-anchor="middle" transform="translate(-33.00000000000003, -57.15767664977293) scale(0.35) rotate(330)">node 52 k=2</text></g><g><circle cx="-35.00000000000003" cy="-60.62177826491069" fill="#984ea3" fill-opacity="0.7" r="2" stroke="#984ea3" stroke-width="0.1" /><text text-anchor="middle" transform="translate(-35.00000000000003, -60.62177826491069) scale(0.35) rotate(330)">node 54 k=2</text></g><g><circle cx="-37.000000000000036" cy="-64.08587988004844" fill="#984ea3" fill-opacity="0.7" r="2" stroke="#984ea3" stroke-width="0.1" /><text text-anchor="middle" transform="translate(-37.000000000000036, -64.08587988004844) scale(0.35) rotate(330)">node 57 k=2</text></g><g><circle cx="-39.000000000000036" cy="-67.54998149518619" fill="#984ea3" fill-opacity="0.7" r="2" stroke="#984ea3" stroke-width="0.1" /><text text-anchor="middle" transform="translate(-39.000000000000036, -67.54998149518619) scale(0.35) rotate(330)">node 60 k=2</text></g><g><circle cx="-41.000000000000036" cy="-71.01408311032395" fill="#984ea3" fill-opacity="0.7" r="2" stroke="#984ea3" stroke-width="0.1" /><text text-anchor="middle" transform="translate(-41.000000000000036, -71.01408311032395) scale(0.35) rotate(330)">node 63 k=2</text></g><g><circle cx="-43.000000000000036" cy="-74.4781847254617" fill="#984ea3" fill-opacity="0.7" r="2" stroke="#984ea3" stroke-width="0.1" /><text text-anchor="middle" transform="translate(-43.000000000000036, -74.4781847254617) scale(0.35) rotate(330)">node 64 k=2</text></g><g><circle cx="-45.00000000000004" cy="-77.94228634059945" fill="#984ea3" fill-opacity="0.7" r="2" stroke="#984ea3" stroke-width="0.1" /><text text-anchor="middle" transform="translate(-45.00000000000004, -77.94228634059945) scale(0.35) rotate(330)">node 65 k=2</text></g><g><circle cx="-47.00000000000004" cy="-81.4063879557372" fill="#984ea3" fill-opacity="0.7" r="2" stroke="#984ea3" stroke-width="0.1" /><text text-anchor="middle" transform="translate(-47.00000000000004, -81.4063879557372) scale(0.35) rotate(330)">node 66 k=2</text></g><g><circle cx="-49.00000000000004" cy="-84.87048957087497" fill="#984ea3" fill-opacity="0.7" r="2" stroke="#984ea3" stroke-width="0.1" /><text text-anchor="middle" transform="translate(-49.00000000000004, -84.87048957087497) scale(0.35) rotate(330)">node 67 k=2</text></g><g><circle cx="-51.00000000000004" cy="-88.33459118601272" fill="#984ea3" fill-opacity="0.7" r="2" stroke="#984ea3" stroke-width="0.1" /><text text-anchor="middle" transform="translate(-51.00000000000004, -88.33459118601272) scale(0.35) rotate(330)">node 68 k=2</text></g><g><circle cx="-53.00000000000005" cy="-91.79869280115047" fill="#984ea3" fill-opacity="0.7" r="2" stroke="#984ea3" stroke-width="0.1" /><text text-anchor="middle" transform="translate(-53.00000000000005, -91.79869280115047) scale(0.35) rotate(330)">node 69 k=2</text></g><g><circle cx="-55.00000000000005" cy="-95.26279441628822" fill="#984ea3" fill-opacity="0.7" r="2" stroke="#984ea3" stroke-width="0.1" /><text text-anchor="middle" transform="translate(-55.00000000000005, -95.26279441628822) scale(0.35) rotate(330)">node 70 k=2</text></g><g><circle cx="-57.00000000000005" cy="-98.72689603142598" fill="#984ea3" fill-opacity="0.7" r="2" stroke="#984ea3" stroke-width="0.1" /><text text-anchor="middle" transform="translate(-57.00000000000005, -98.72689603142598) scale(0.35) rotate(330)">node 72 k=2</text></g><g><circle cx="-59.00000000000005" cy="-102.19099764656373" fill="#984ea3" fill-opacity="0.7" r="2" stroke="#984ea3" stroke-width="0.1" /><text text-anchor="middle" transform="translate(-59.00000000000005, -102.19099764656373) scale(0.35) rotate(330)">node 74 k=2</text></g><g><circle cx="-61.00000000000006" cy="-105.65509926170148" fill="#984ea3" fill-opacity="0.7" r="2" stroke="#984ea3" stroke-width="0.1" /><text text-anchor="middle" transform="translate(-61.00000000000006, -105.65509926170148) scale(0.35) rotate(330)">node 76 k=2</text></g><g><circle cx="-63.00000000000006" cy="-109.11920087683923" fill="#984ea3" fill-opacity="0.7" r="2" stroke="#984ea3" stroke-width="0.1" /><text text-anchor="middle" transform="translate(-63.00000000000006, -109.11920087683923) scale(0.35) rotate(330)">node 77 k=2</text></g><g><circle cx="-65.00000000000006" cy="-112.583302491977" fill="#984ea3" fill-opacity="0.7" r="2" stroke="#984ea3" stroke-width="0.1" /><text text-anchor="middle" transform="translate(-65.00000000000006, -112.583302491977) scale(0.35) rotate(330)">node 78 k=2</text></g><g><circle cx="-67.00000000000006" cy="-116.04740410711474" fill="#984ea3" fill-opacity="0.7" r="2" stroke="#984ea3" stroke-width="0.1" /><text text-anchor="middle" transform="translate(-67.00000000000006, -116.04740410711474) scale(0.35) rotate(330)">node 80 k=2</text></g><g><circle cx="-69.00000000000006" cy="-119.5115057222525" fill="#984ea3" fill-opacity="0.7" r="2" stroke="#984ea3" stroke-width="0.1" /><text text-anchor="middle" transform="translate(-69.00000000000006, -119.5115057222525) scale(0.35) rotate(330)">node 83 k=2</text></g><g><circle cx="-71.00000000000006" cy="-122.97560733739024" fill="#984ea3" fill-opacity="0.7" r="2" stroke="#984ea3" stroke-width="0.1" /><text text-anchor="middle" transform="translate(-71.00000000000006, -122.97560733739024) scale(0.35) rotate(330)">node 84 k=2</text></g><g><circle cx="-73.00000000000007" cy="-126.43970895252801" fill="#984ea3" fill-opacity="0.7" r="2" stroke="#984ea3" stroke-width="0.1" /><text text-anchor="middle" transform="translate(-73.00000000000007, -126.43970895252801) scale(0.35) rotate(330)">node 85 k=2</text></g><g><circle cx="-75.00000000000007" cy="-129.90381056766574" fill="#984ea3" fill-opacity="0.7" r="2" stroke="#984ea3" stroke-width="0.1" /><text text-anchor="middle" transform="translate(-75.00000000000007, -129.90381056766574) scale(0.35) rotate(330)">node 87 k=2</text></g><g><circle cx="-77.00000000000007" cy="-133.3679121828035" fill="#984ea3" fill-opacity="0.7" r="2" stroke="#984ea3" stroke-width="0.1" /><text text-anchor="middle" transform="translate(-77.00000000000007, -133.3679121828035) scale(0.35) rotate(330)">node 88 k=2</text></g><g><circle cx="-79.00000000000007" cy="-136.83201379794127" fill="#984ea3" fill-opacity="0.7" r="2" stroke="#984ea3" stroke-width="0.1" /><text text-anchor="middle" transform="translate(-79.00000000000007, -136.83201379794127) scale(0.35) rotate(330)">node 89 k=2</text></g><g><circle cx="-81.00000000000007" cy="-140.296115413079" fill="#984ea3" fill-opacity="0.7" r="2" stroke="#984ea3" stroke-width="0.1" /><text text-anchor="middle" transform="translate(-81.00000000000007, -140.296115413079) scale(0.35) rotate(330)">node 90 k=2</text></g><g><circle cx="-83.00000000000007" cy="-143.76021702821677" fill="#984ea3" fill-opacity="0.7" r="2" stroke="#984ea3" stroke-width="0.1" /><text text-anchor="middle" transform="translate(-83.00000000000007, -143.76021702821677) scale(0.35) rotate(330)">node 91 k=2</text></g><g><circle cx="-85.00000000000007" cy="-147.22431864335454" fill="#984ea3" fill-opacity="0.7" r="2" stroke="#984ea3" stroke-width="0.1" /><text text-anchor="middle" transform="translate(-85.00000000000007, -147.22431864335454) scale(0.35) rotate(330)">node 93 k=2</text></g><g><circle cx="-87.00000000000007" cy="-150.68842025849227" fill="#984ea3" fill-opacity="0.7" r="2" stroke="#984ea3" stroke-width="0.1" /><text text-anchor="middle" transform="translate(-87.00000000000007, -150.68842025849227) scale(0.35) rotate(330)">node 94 k=2</text></g><g><circle cx="-89.00000000000009" cy="-154.15252187363004" fill="#984ea3" fill-opacity="0.7" r="2" stroke="#984ea3" stroke-width="0.1" /><text text-anchor="middle" transform="translate(-89.00000000000009, -154.15252187363004) scale(0.35) rotate(330)">node 95 k=2</text></g><g><circle cx="-91.00000000000009" cy="-157.61662348876777" fill="#984ea3" fill-opacity="0.7" r="2" stroke="#984ea3" stroke-width="0.1" /><text text-anchor="middle" transform="translate(-91.00000000000009, -157.61662348876777) scale(0.35) rotate(330)">node 96 k=2</text></g><g><circle cx="-93.00000000000009" cy="-161.08072510390554" fill="#984ea3" fill-opacity="0.7" r="2" stroke="#984ea3" stroke-width="0.1" /><text text-anchor="middle" transform="translate(-93.00000000000009, -161.08072510390554) scale(0.35) rotate(330)">node 97 k=2</text></g><g><circle cx="-95.00000000000009" cy="-164.5448267190433" fill="#984ea3" fill-opacity="0.7" r="2" stroke="#984ea3" stroke-width="0.1" /><text text-anchor="middle" transform="translate(-95.00000000000009, -164.5448267190433) scale(0.35) rotate(330)">node 98 k=2</text></g><g><circle cx="-97.00000000000009" cy="-168.00892833418104" fill="#984ea3" fill-opacity="0.7" r="2" stroke="#984ea3" stroke-width="0.1" /><text text-anchor="middle" transform="translate(-97.00000000000009, -168.00892833418104) scale(0.35) rotate(330)">node 99 k=2</text></g><g><circle cx="-99.50000000000009" cy="-172.33905535310325" fill="#984ea3" fill-opacity="0.7" r="3" stroke="#984ea3" stroke-width="0.1" /><text text-anchor="middle" transform="translate(-99.50000000000009, -172.33905535310325) scale(0.35) rotate(330)">node 13 k=3</text></g><g><circle cx="-102.50000000000009" cy="-177.53520777580988" fill="#984ea3" fill-opacity="0.7" r="3" stroke="#984ea3" stroke-width="0.1" /><text text-anchor="middle" transform="translate(-102.50000000000009, -177.53520777580988) scale(0.35) rotate(330)">node 23 k=3</text></g><g><circle cx="-105.5000000000001" cy="-182.73136019851648" fill="#984ea3" fill-opacity="0.7" r="3" stroke="#984ea3" stroke-width="0.1" /><text text-anchor="middle" transform="translate(-105.5000000000001, -182.73136019851648) scale(0.35) rotate(330)">node 24 k=3</text></g><g><circle cx="-108.5000000000001" cy="-187.92751262122312" fill="#984ea3" fill-opacity="0.7" r="3" stroke="#984ea3" stroke-width="0.1" /><text text-anchor="middle" transform="translate(-108.5000000000001, -187.92751262122312) scale(0.35) rotate(330)">node 26 k=3</text></g><g><circle cx="-111.5000000000001" cy="-193.12366504392975" fill="#984ea3" fill-opacity="0.7" r="3" stroke="#984ea3" stroke-width="0.1" /><text text-anchor="middle" transform="translate(-111.5000000000001, -193.12366504392975) scale(0.35) rotate(330)">node 27 k=3</text></g><g><circle cx="-114.5000000000001" cy="-198.31981746663638" fill="#984ea3" fill-opacity="0.7" r="3" stroke="#984ea3" stroke-width="0.1" /><text text-anchor="middle" transform="translate(-114.5000000000001, -198.31981746663638) scale(0.35) rotate(330)">node 34 k=3</text></g><g><circle cx="-117.5000000000001" cy="-203.515969889343" fill="#984ea3" fill-opacity="0.7" r="3" stroke="#984ea3" stroke-width="0.1" /><text text-anchor="middle" transform="translate(-117.5000000000001, -203.515969889343) scale(0.35) rotate(330)">node 36 k=3</text></g><g><circle cx="-120.50000000000011" cy="-208.71212231204964" fill="#984ea3" fill-opacity="0.7" r="3" stroke="#984ea3" stroke-width="0.1" /><text text-anchor="middle" transform="translate(-120.50000000000011, -208.71212231204964) scale(0.35) rotate(330)">node 37 k=3</text></g><g><circle cx="-123.50000000000011" cy="-213.90827473475628" fill="#984ea3" fill-opacity="0.7" r="3" stroke="#984ea3" stroke-width="0.1" /><text text-anchor="middle" transform="translate(-123.50000000000011, -213.90827473475628) scale(0.35) rotate(330)">node 47 k=3</text></g><g><circle cx="-126.50000000000011" cy="-219.1044271574629" fill="#984ea3" fill-opacity="0.7" r="3" stroke="#984ea3" stroke-width="0.1" /><text text-anchor="middle" transform="translate(-126.50000000000011, -219.1044271574629) scale(0.35) rotate(330)">node 49 k=3</text></g><g><circle cx="-129.5000000000001" cy="-224.30057958016954" fill="#984ea3" fill-opacity="0.7" r="3" stroke="#984ea3" stroke-width="0.1" /><text text-anchor="middle" transform="translate(-129.5000000000001, -224.30057958016954) scale(0.35) rotate(330)">node 55 k=3</text></g><g><circle cx="-132.5000000000001" cy="-229.49673200287617" fill="#984ea3" fill-opacity="0.7" r="3" stroke="#984ea3" stroke-width="0.1" /><text text-anchor="middle" transform="translate(-132.5000000000001, -229.49673200287617) scale(0.35) rotate(330)">node 58 k=3</text></g><g><circle cx="-135.5000000000001" cy="-234.6928844255828" fill="#984ea3" fill-opacity="0.7" r="3" stroke="#984ea3" stroke-width="0.1" /><text text-anchor="middle" transform="translate(-135.5000000000001, -234.6928844255828) scale(0.35) rotate(330)">node 59 k=3</text></g><g><circle cx="-138.5000000000001" cy="-239.88903684828944" fill="#984ea3" fill-opacity="0.7" r="3" stroke="#984ea3" stroke-width="0.1" /><text text-anchor="middle" transform="translate(-138.5000000000001, -239.88903684828944) scale(0.35) rotate(330)">node 61 k=3</text></g><g><circle cx="-141.5000000000001" cy="-245.08518927099607" fill="#984ea3" fill-opacity="0.7" r="3" stroke="#984ea3" stroke-width="0.1" /><text text-anchor="middle" transform="translate(-141.5000000000001, -245.08518927099607) scale(0.35) rotate(330)">node 71 k=3</text></g><g><circle cx="-144.50000000000014" cy="-250.2813416937027" fill="#984ea3" fill-opacity="0.7" r="3" stroke="#984ea3" stroke-width="0.1" /><text text-anchor="middle" transform="translate(-144.50000000000014, -250.2813416937027) scale(0.35) rotate(330)">node 73 k=3</text></g><g><circle cx="-147.50000000000014" cy="-255.47749411640933" fill="#984ea3" fill-opacity="0.7" r="3" stroke="#984ea3" stroke-width="0.1" /><text text-anchor="middle" transform="translate(-147.50000000000014, -255.47749411640933) scale(0.35) rotate(330)">node 75 k=3</text></g><g><circle cx="-150.50000000000014" cy="-260.67364653911596" fill="#984ea3" fill-opacity="0.7" r="3" stroke="#984ea3" stroke-width="0.1" /><text text-anchor="middle" transform="translate(-150.50000000000014, -260.67364653911596) scale(0.35) rotate(330)">node 79 k=3</text></g><g><circle cx="-153.50000000000014" cy="-265.8697989618226" fill="#984ea3" fill-opacity="0.7" r="3" stroke="#984ea3" stroke-width="0.1" /><text text-anchor="middle" transform="translate(-153.50000000000014, -265.8697989618226) scale(0.35) rotate(330)">node 81 k=3</text></g><g><circle cx="-156.50000000000014" cy="-271.0659513845292" fill="#984ea3" fill-opacity="0.7" r="3" stroke="#984ea3" stroke-width="0.1" /><text text-anchor="middle" transform="translate(-156.50000000000014, -271.0659513845292) scale(0.35) rotate(330)">node 86 k=3</text></g><g><circle cx="-159.50000000000014" cy="-276.26210380723586" fill="#984ea3" fill-opacity="0.7" r="3" stroke="#984ea3" stroke-width="0.1" /><text text-anchor="middle" transform="translate(-159.50000000000014, -276.26210380723586) scale(0.35) rotate(330)">node 92 k=3</text></g></g></svg>